# xmcd
#
# Track frame offsets: 
#        150
#        13477
#        23790
#        36225
#        56110
#        74740
#        87805
#        105010
#        119357
#        134637
#
# Disc length: 2011 seconds
#
# Revision: 2
# Processed by: cddbd v1.5.1PL0 Copyright (c) Steve Scherf et al.
# Submitted via: ExactAudioCopy v0.95a5
#
DISCID=8c07d90a
DTITLE=Roger Williams - Greatest Hits
DYEAR=1989
DGENRE=Easy Listening
TTITLE0=Autumn Leaves
TTITLE1=Born Free
TTITLE2=Lara's Theme
TTITLE3=Lady
TTITLE4=September Song
TTITLE5=More
TTITLE6=Misty
TTITLE7=The Way We Were
TTITLE8=Somewhere In Time
TTITLE9=Nadia's Theme
EXTD=
EXTT0=
EXTT1=
EXTT2=
EXTT3=
EXTT4=
EXTT5=
EXTT6=
EXTT7=
EXTT8=
EXTT9=
PLAYORDER=
